<?xml version="1.0" encoding="utf-8"?>
<!-- Generator: Adobe Illustrator 26.3.1, SVG Export Plug-In . SVG Version: 6.00 Build 0)  -->
<svg version="1.1" id="Layer_1" xmlns="http://www.w3.org/2000/svg" xmlns:xlink="http://www.w3.org/1999/xlink" x="0px" y="0px"
	 viewBox="0 0 111.4 122.9" style="enable-background:new 0 0 111.4 122.9;" xml:space="preserve">
<style type="text/css">
	.st0{fill:#FFFFFF;}
</style>
<g>
	<path class="st0" d="M66.8,7.1H29.9c-2.4,0-4.6,0.4-6.5,1.2c-2,0.8-3.8,2.1-5.5,3.7l0,0c-0.7,0.7-1.3,1.4-1.8,2.1
		c-3,0.1-5.9,0.6-8.7,1.4c0.1-0.2,0.2-0.4,0.3-0.6c1.2-2.9,2.9-5.5,5.3-7.8l0,0l0,0c2.3-2.3,4.9-4.1,7.8-5.3C23.5,0.6,26.6,0,29.9,0
		h16.7h36.9c3.3,0,6.4,0.6,9.2,1.8c2.9,1.2,5.5,2.9,7.8,5.3l0,0c2.3,2.3,4.1,4.9,5.3,7.8c1.2,2.9,1.8,5.9,1.8,9.2v0.1h-7.1v-0.1
		c0-2.4-0.4-4.6-1.2-6.5c-0.8-2-2.1-3.8-3.7-5.5l0,0l0,0c-1.7-1.7-3.5-2.9-5.5-3.7s-4.2-1.2-6.5-1.2L66.8,7.1L66.8,7.1z M87.6,39.9
		h23.1v5.6L98.1,58.3h13.3v6.5H86.6v-6.2l12-12.2h-11V39.9L87.6,39.9z M73,30.5h9.5V37H73V30.5L73,30.5z M73,39.9h9.5v24.9H73V39.9
		L73,39.9z M66.8,64.8h-8.9v-4c-1.3,1.7-2.7,2.8-4,3.5c-1.3,0.7-3,1.1-5,1.1c-2.6,0-4.7-0.8-6.2-2.4c-1.5-1.6-2.2-4-2.2-7.3V39.9
		h9.6v13.7c0,1.6,0.3,2.7,0.9,3.3c0.6,0.7,1.4,1,2.4,1c1.1,0,2-0.4,2.8-1.3c0.7-0.9,1.1-2.5,1.1-4.7v-12h9.5V64.8L66.8,64.8z
		 M31.8,59.8c1.3,0.9,2.2,1.5,2.6,1.7c0.6,0.3,1.4,0.7,2.5,1.2L34,68.7c-1.5-0.7-3-1.6-4.4-2.6c-1.5-1-2.5-1.7-3-2.2
		c-2.3,1-5.3,1.5-8.8,1.5c-5.2,0-9.3-1.4-12.4-4.1C1.8,58.1,0,53.6,0,47.8c0-5.7,1.6-10,4.7-13.2c3.1-3.1,7.5-4.7,13.1-4.7
		c5.7,0,10.1,1.5,13.2,4.6c3.1,3,4.7,7.4,4.7,13.1C35.6,52.7,34.3,56.8,31.8,59.8L31.8,59.8z M23.7,54.3c0.9-1.5,1.3-3.8,1.3-6.8
		c0-3.5-0.6-5.9-1.9-7.4c-1.3-1.5-3.1-2.2-5.3-2.2c-2.1,0-3.8,0.8-5.1,2.3c-1.3,1.5-2,3.9-2,7.1c0,3.8,0.6,6.4,1.9,7.9
		c1.3,1.5,3,2.3,5.3,2.3c0.7,0,1.4-0.1,2-0.2c-0.9-0.9-2.3-1.7-4.2-2.4l1.7-3.8c0.9,0.2,1.7,0.4,2.2,0.6c0.5,0.2,1.5,0.9,3.1,2
		C22.9,53.8,23.3,54.1,23.7,54.3L23.7,54.3z M14.2,81.1c0.8,1.9,2,3.6,3.6,5.2l0.2,0.2c1.6,1.6,3.4,2.8,5.3,3.6
		c2,0.8,4.1,1.2,6.5,1.2h15.9c2,0,3.5,1.6,3.5,3.5c0,0.4-0.1,0.8-0.2,1.2c-0.6,2.2-1.2,4.4-2,6.6c-0.8,2.2-1.6,4.4-2.6,6.5
		c-0.4,0.9-0.9,1.8-1.4,2.7c3.1-1.4,6-3,8.7-4.8h0l0,0c3-1.9,5.7-4.1,8.3-6.5c2.6-2.4,4.9-5,7-7.9c0.7-0.9,1.8-1.4,2.8-1.4v0h13.6
		c2.4,0,4.6-0.4,6.5-1.2c2-0.8,3.8-2.1,5.5-3.7c1.7-1.7,2.9-3.5,3.7-5.5l0.1-0.2h7.4c-0.3,1-0.6,1.9-1,2.9c-1.2,2.9-2.9,5.5-5.3,7.8
		c-2.3,2.3-4.9,4.1-7.8,5.3s-5.9,1.8-9.2,1.8H71.7c-2.1,2.7-4.3,5.1-6.8,7.4c-2.9,2.7-5.9,5.1-9.2,7.3l0,0
		c-3.3,2.2-6.8,4.1-10.6,5.7c-3.7,1.6-7.7,3-11.9,4.1c-1.2,0.3-2.6-0.1-3.5-1.1c-1.3-1.5-1.1-3.7,0.3-5c1.9-1.7,3.5-3.3,4.8-5
		l0.2-0.2c1.3-1.7,2.4-3.5,3.2-5.2l0,0c0.9-1.9,1.7-3.9,2.3-5.9c0.2-0.6,0.4-1.3,0.7-1.9H29.9c-3.3,0-6.4-0.6-9.2-1.8
		c-2.8-1.2-5.3-2.8-7.6-5.1c-0.1-0.1-0.1-0.1-0.2-0.2c-2.3-2.3-4.1-4.9-5.3-7.8c-0.5-1.3-0.9-2.6-1.2-3.9
		C8.9,80.4,11.5,80.8,14.2,81.1L14.2,81.1z"/>
</g>
</svg>
